<svg width="25" height="25" viewBox="0 0 25 25" fill="none" xmlns="http://www.w3.org/2000/svg">
<g clip-path="url(#clip0_4_9)">
<path d="M7.91406 0.246875C8.23964 0.0843061 8.5986 -0.000217433 8.9625 4.20055e-07H16.0375C16.4009 2.50066e-05 16.7593 0.0845421 17.0844 0.246875L22.1422 2.775C22.5318 2.96952 22.8596 3.26875 23.0886 3.63913C23.3177 4.00951 23.4391 4.43638 23.4391 4.87188V21.0938C23.4391 22.1298 23.0275 23.1233 22.295 23.8559C21.5624 24.5884 20.5688 25 19.5328 25H5.47031C4.95721 25.0002 4.44908 24.8993 3.97498 24.7031C3.50087 24.5069 3.07006 24.2192 2.70717 23.8564C2.34427 23.4937 2.0564 23.063 1.86 22.589C1.66359 22.1149 1.5625 21.6069 1.5625 21.0938V4.87188C1.56223 4.43671 1.68311 4.01006 1.91161 3.63972C2.14011 3.26937 2.4672 2.96995 2.85625 2.775L7.91406 0.246875ZM3.125 14.6437V21.0938C3.125 21.7154 3.37193 22.3115 3.81147 22.751C4.25101 23.1906 4.84715 23.4375 5.46875 23.4375H11.7188V12.5H10.3859C10.3097 12.4999 10.2339 12.511 10.1609 12.5328L3.125 14.6437ZM13.2813 23.4375H19.5313C20.1529 23.4375 20.749 23.1906 21.1885 22.751C21.6281 22.3115 21.875 21.7154 21.875 21.0938V14.6437L14.8391 12.5344C14.7661 12.512 14.6903 12.5004 14.6141 12.5H13.2813V23.4375ZM21.875 13.0125V4.87188C21.875 4.72691 21.8347 4.5848 21.7585 4.46146C21.6823 4.33811 21.5734 4.23838 21.4438 4.17344L16.3875 1.64531C16.2789 1.59086 16.159 1.56251 16.0375 1.5625H8.9625C8.84151 1.56275 8.72223 1.5911 8.61406 1.64531L3.55781 4.17188C3.42768 4.23672 3.31822 4.3366 3.24176 4.46026C3.1653 4.58393 3.12486 4.72648 3.125 4.87188V13.0125L4.6875 12.5437V7.8125C4.6875 7.3981 4.85212 7.00067 5.14515 6.70765C5.43817 6.41462 5.8356 6.25 6.25 6.25H18.75C19.1644 6.25 19.5618 6.41462 19.8549 6.70765C20.1479 7.00067 20.3125 7.3981 20.3125 7.8125V12.5437L21.875 13.0125ZM18.75 12.075V7.8125H13.2813V10.9375H14.6141C14.8421 10.9374 15.069 10.9705 15.2875 11.0359L18.75 12.075ZM11.7188 10.9375V7.8125H6.25V12.075L9.7125 11.0359C9.93049 10.9707 10.1568 10.9375 10.3844 10.9375H11.7188ZM10.1563 3.125C9.94905 3.125 9.75034 3.20731 9.60382 3.35382C9.45731 3.50034 9.375 3.69905 9.375 3.90625C9.375 4.11345 9.45731 4.31216 9.60382 4.45868C9.75034 4.60519 9.94905 4.6875 10.1563 4.6875H14.8438C15.051 4.6875 15.2497 4.60519 15.3962 4.45868C15.5427 4.31216 15.625 4.11345 15.625 3.90625C15.625 3.69905 15.5427 3.50034 15.3962 3.35382C15.2497 3.20731 15.051 3.125 14.8438 3.125H10.1563ZM5.46875 15.625C5.26155 15.625 5.06284 15.7073 4.91632 15.8538C4.76981 16.0003 4.6875 16.199 4.6875 16.4062C4.6875 16.6135 4.76981 16.8122 4.91632 16.9587C5.06284 17.1052 5.26155 17.1875 5.46875 17.1875C5.67595 17.1875 5.87467 17.1052 6.02118 16.9587C6.16769 16.8122 6.25 16.6135 6.25 16.4062C6.25 16.199 6.16769 16.0003 6.02118 15.8538C5.87467 15.7073 5.67595 15.625 5.46875 15.625ZM19.5313 15.625C19.3241 15.625 19.1253 15.7073 18.9788 15.8538C18.8323 16.0003 18.75 16.199 18.75 16.4062C18.75 16.6135 18.8323 16.8122 18.9788 16.9587C19.1253 17.1052 19.3241 17.1875 19.5313 17.1875C19.7385 17.1875 19.9372 17.1052 20.0837 16.9587C20.2302 16.8122 20.3125 16.6135 20.3125 16.4062C20.3125 16.199 20.2302 16.0003 20.0837 15.8538C19.9372 15.7073 19.7385 15.625 19.5313 15.625ZM7.8125 20.3125C7.8125 20.7269 7.64788 21.1243 7.35486 21.4174C7.06183 21.7104 6.6644 21.875 6.25 21.875C5.8356 21.875 5.43817 21.7104 5.14515 21.4174C4.85212 21.1243 4.6875 20.7269 4.6875 20.3125C4.6875 19.8981 4.85212 19.5007 5.14515 19.2076C5.43817 18.9146 5.8356 18.75 6.25 18.75C6.6644 18.75 7.06183 18.9146 7.35486 19.2076C7.64788 19.5007 7.8125 19.8981 7.8125 20.3125ZM18.75 21.875C19.1644 21.875 19.5618 21.7104 19.8549 21.4174C20.1479 21.1243 20.3125 20.7269 20.3125 20.3125C20.3125 19.8981 20.1479 19.5007 19.8549 19.2076C19.5618 18.9146 19.1644 18.75 18.75 18.75C18.3356 18.75 17.9382 18.9146 17.6451 19.2076C17.3521 19.5007 17.1875 19.8981 17.1875 20.3125C17.1875 20.7269 17.3521 21.1243 17.6451 21.4174C17.9382 21.7104 18.3356 21.875 18.75 21.875Z" fill="black"/>
</g>
<defs>
<clipPath id="clip0_4_9">
<rect width="25" height="25" fill="white"/>
</clipPath>
</defs>
</svg>
