<svg width="30" height="30" viewBox="0 0 30 30" fill="none" xmlns="http://www.w3.org/2000/svg">
<path d="M28.125 7.5V5.625H7.5V7.5H16.875V11.25H3.75V7.5H1.875V15H3.75V13.125H9.58125L11.5059 20.8247C11.7583 21.8393 12.3432 22.7402 13.1673 23.3837C13.9914 24.0272 15.0072 24.3762 16.0528 24.375H24.375C25.3692 24.3738 26.3223 23.9783 27.0253 23.2753C27.7283 22.5723 28.1238 21.6192 28.125 20.625V18.1519C28.1248 17.7133 27.9709 17.2887 27.69 16.9519L23.5013 11.925C23.3255 11.7137 23.1054 11.5437 22.8565 11.427C22.6076 11.3103 22.3361 11.2499 22.0612 11.25H18.75V7.5H28.125ZM24.375 22.5H16.0528C15.4255 22.5007 14.816 22.2914 14.3215 21.9053C13.8271 21.5193 13.4761 20.9788 13.3247 20.37L11.5134 13.125H16.875V18.75H26.25V20.625C26.2495 21.1221 26.0518 21.5988 25.7003 21.9503C25.3488 22.3018 24.8721 22.4995 24.375 22.5ZM22.0612 13.125L25.1859 16.875H18.75V13.125H22.0612Z" fill="black"/>
</svg>
