<svg width="21" height="20" viewBox="0 0 21 20" fill="none" xmlns="http://www.w3.org/2000/svg">
<path d="M20.5 10C20.5 15.224 16.0461 19.5 10.5 19.5C4.95388 19.5 0.5 15.224 0.5 10C0.5 4.776 4.95388 0.5 10.5 0.5C16.0461 0.5 20.5 4.776 20.5 10Z" fill="#D9D9D9" fill-opacity="0.03" stroke="#FCF8F8"/>
<path d="M14.6663 10C14.6663 12.7052 14.1536 15.1299 13.3464 16.8596C12.5203 18.6299 11.4787 19.5 10.4997 19.5C9.52066 19.5 8.47908 18.6299 7.65293 16.8596C6.84574 15.1299 6.33301 12.7052 6.33301 10C6.33301 7.29479 6.84574 4.87008 7.65293 3.14037C8.47908 1.37007 9.52066 0.5 10.4997 0.5C11.4787 0.5 12.5203 1.37007 13.3464 3.14037C14.1536 4.87008 14.6663 7.29479 14.6663 10Z" fill="#D9D9D9" fill-opacity="0.01" stroke="#FCF8F8"/>
<line y1="11.5" x2="21" y2="11.5" stroke="#FCF8F8"/>
</svg>
