<svg width="21" height="20" viewBox="0 0 21 20" fill="none" xmlns="http://www.w3.org/2000/svg">
<path d="M20.5 10C20.5 15.224 16.0461 19.5 10.5 19.5C4.95388 19.5 0.5 15.224 0.5 10C0.5 4.776 4.95388 0.5 10.5 0.5C16.0461 0.5 20.5 4.776 20.5 10Z" fill="#D9D9D9" fill-opacity="0.03" stroke="#FCF8F8"/>
<path d="M14.6668 10C14.6668 12.7052 14.1541 15.1299 13.3469 16.8596C12.5208 18.6299 11.4792 19.5 10.5002 19.5C9.52115 19.5 8.47956 18.6299 7.65342 16.8596C6.84623 15.1299 6.3335 12.7052 6.3335 10C6.3335 7.29479 6.84623 4.87008 7.65342 3.14037C8.47956 1.37007 9.52115 0.5 10.5002 0.5C11.4792 0.5 12.5208 1.37007 13.3469 3.14037C14.1541 4.87008 14.6668 7.29479 14.6668 10Z" fill="#D9D9D9" fill-opacity="0.01" stroke="#FCF8F8"/>
<line y1="11.5" x2="21" y2="11.5" stroke="#FCF8F8"/>
</svg>
