<svg width="21" height="20" viewBox="0 0 21 20" fill="none" xmlns="http://www.w3.org/2000/svg">
<path d="M20.5 10C20.5 15.224 16.0461 19.5 10.5 19.5C4.95388 19.5 0.5 15.224 0.5 10C0.5 4.776 4.95388 0.5 10.5 0.5C16.0461 0.5 20.5 4.776 20.5 10Z" fill="#D9D9D9" fill-opacity="0.03" stroke="#FCF8F8"/>
<path d="M14.6667 10C14.6667 12.7052 14.154 15.1299 13.3468 16.8596C12.5206 18.6299 11.4791 19.5 10.5 19.5C9.52103 19.5 8.47944 18.6299 7.6533 16.8596C6.84611 15.1299 6.33337 12.7052 6.33337 10C6.33337 7.29479 6.84611 4.87008 7.6533 3.14037C8.47944 1.37007 9.52103 0.5 10.5 0.5C11.4791 0.5 12.5206 1.37007 13.3468 3.14037C14.154 4.87008 14.6667 7.29479 14.6667 10Z" fill="#D9D9D9" fill-opacity="0.01" stroke="#FCF8F8"/>
<line y1="11.5" x2="21" y2="11.5" stroke="#FCF8F8"/>
</svg>
