<svg width="25" height="25" viewBox="0 0 25 25" fill="none" xmlns="http://www.w3.org/2000/svg">
<path d="M6.25 2.34375C6.25 2.13655 6.16769 1.93784 6.02118 1.79132C5.87466 1.64481 5.67595 1.5625 5.46875 1.5625C5.26155 1.5625 5.06284 1.64481 4.91632 1.79132C4.76981 1.93784 4.6875 2.13655 4.6875 2.34375V7.03125C4.68732 7.93176 4.99827 8.80468 5.56773 9.50227C6.13719 10.1999 6.93018 10.6793 7.8125 10.8594V22.6562C7.8125 22.8635 7.89481 23.0622 8.04132 23.2087C8.18784 23.3552 8.38655 23.4375 8.59375 23.4375C8.80095 23.4375 8.99966 23.3552 9.14618 23.2087C9.29269 23.0622 9.375 22.8635 9.375 22.6562V10.8594C10.2573 10.6793 11.0503 10.1999 11.6198 9.50227C12.1892 8.80468 12.5002 7.93176 12.5 7.03125V2.34375C12.5 2.13655 12.4177 1.93784 12.2712 1.79132C12.1247 1.64481 11.926 1.5625 11.7188 1.5625C11.5115 1.5625 11.3128 1.64481 11.1663 1.79132C11.0198 1.93784 10.9375 2.13655 10.9375 2.34375V7.03125C10.9378 7.51613 10.7876 7.98916 10.5078 8.38514C10.2279 8.78112 9.83215 9.08056 9.375 9.24219V2.34375C9.375 2.13655 9.29269 1.93784 9.14618 1.79132C8.99966 1.64481 8.80095 1.5625 8.59375 1.5625C8.38655 1.5625 8.18784 1.64481 8.04132 1.79132C7.89481 1.93784 7.8125 2.13655 7.8125 2.34375V9.24219C7.35535 9.08056 6.95958 8.78112 6.67973 8.38514C6.39989 7.98916 6.24975 7.51613 6.25 7.03125V2.34375ZM17.1875 22.6562V12.5H14.8438C14.6365 12.5 14.4378 12.4177 14.2913 12.2712C14.1448 12.1247 14.0625 11.926 14.0625 11.7188V5.46875C14.0625 4.43281 14.5719 3.46406 15.2672 2.76719C15.9641 2.07188 16.9328 1.5625 17.9688 1.5625C18.176 1.5625 18.3747 1.64481 18.5212 1.79132C18.6677 1.93784 18.75 2.13655 18.75 2.34375V22.6562C18.75 22.8635 18.6677 23.0622 18.5212 23.2087C18.3747 23.3552 18.176 23.4375 17.9688 23.4375C17.7615 23.4375 17.5628 23.3552 17.4163 23.2087C17.2698 23.0622 17.1875 22.8635 17.1875 22.6562Z" fill="black"/>
</svg>
