<svg width="32" height="32" viewBox="0 0 32 32" fill="none" xmlns="http://www.w3.org/2000/svg">
<path d="M7 7.97646H13M7 16.1157H25M7 20.7666H25M7 25.4176H13M4 31.2313H28C28.7956 31.2313 29.5587 30.9863 30.1213 30.5502C30.6839 30.1141 31 29.5226 31 28.9058V3.32549C31 2.70873 30.6839 2.11723 30.1213 1.68112C29.5587 1.24501 28.7956 1 28 1H4C3.20435 1 2.44129 1.24501 1.87868 1.68112C1.31607 2.11723 1 2.70873 1 3.32549V28.9058C1 29.5226 1.31607 30.1141 1.87868 30.5502C2.44129 30.9863 3.20435 31.2313 4 31.2313Z" stroke="black" stroke-width="1.25" stroke-linecap="round" stroke-linejoin="round"/>
<path d="M11 5.09222C11.1726 5.09222 11.3125 4.95123 11.3125 4.77731C11.3125 4.60339 11.1726 4.4624 11 4.4624C10.8274 4.4624 10.6875 4.60339 10.6875 4.77731C10.6875 4.95123 10.8274 5.09222 11 5.09222Z" fill="black" stroke="black" stroke-width="0.625"/>
</svg>
