<svg width="30" height="30" viewBox="0 0 30 30" fill="none" xmlns="http://www.w3.org/2000/svg">
<path d="M25 8.75H20V6.25L17.5 3.75H12.5L10 6.25V8.75H5C3.625 8.75 2.5 9.875 2.5 11.25V17.5C2.5 18.4375 3 19.225 3.75 19.6625V23.75C3.75 25.1375 4.8625 26.25 6.25 26.25H23.75C25.1375 26.25 26.25 25.1375 26.25 23.75V19.65C26.9875 19.2125 27.5 18.4125 27.5 17.5V11.25C27.5 9.875 26.375 8.75 25 8.75ZM12.5 6.25H17.5V8.75H12.5V6.25ZM5 11.25H25V17.5H18.75V13.75H11.25V17.5H5V11.25ZM16.25 18.75H13.75V16.25H16.25V18.75ZM23.75 23.75H6.25V20H11.25V21.25H18.75V20H23.75V23.75Z" fill="black"/>
</svg>
