<svg width="20" height="19" viewBox="0 0 20 19" fill="none" xmlns="http://www.w3.org/2000/svg">
<path d="M15.4335 3.8C15.4335 4.477 14.9648 5.2234 13.9197 5.84145C12.8913 6.44963 11.4216 6.85 9.75793 6.85C8.09423 6.85 6.62454 6.44963 5.59612 5.84145C4.55104 5.2234 4.08234 4.477 4.08234 3.8C4.08234 3.123 4.55104 2.3766 5.59612 1.75855C6.62454 1.15037 8.09423 0.75 9.75793 0.75C11.4216 0.75 12.8913 1.15037 13.9197 1.75855C14.9648 2.3766 15.4335 3.123 15.4335 3.8Z" stroke="#FCF8F8" stroke-width="1.5"/>
<path d="M18.3254 19C18.3254 17.0898 18.3254 13.0191 18.3254 11.1321C18.3254 10.5798 17.8777 10.1334 17.3254 10.1334H2.19049C1.63821 10.1334 1.19049 10.5811 1.19049 11.1334V15.2" stroke="#FCF8F8" stroke-width="1.5"/>
</svg>
