<svg width="20" height="19" viewBox="0 0 20 19" fill="none" xmlns="http://www.w3.org/2000/svg">
<path d="M15.4337 3.8C15.4337 4.477 14.965 5.2234 13.9199 5.84145C12.8915 6.44963 11.4218 6.85 9.75811 6.85C8.09441 6.85 6.62472 6.44963 5.59631 5.84145C4.55123 5.2234 4.08252 4.477 4.08252 3.8C4.08252 3.123 4.55123 2.3766 5.59631 1.75855C6.62472 1.15037 8.09441 0.75 9.75811 0.75C11.4218 0.75 12.8915 1.15037 13.9199 1.75855C14.965 2.3766 15.4337 3.123 15.4337 3.8Z" stroke="#FCF8F8" stroke-width="1.5"/>
<path d="M18.3253 19C18.3253 17.0898 18.3253 13.0191 18.3253 11.1321C18.3253 10.5798 17.8776 10.1334 17.3254 10.1334H2.19043C1.63814 10.1334 1.19043 10.5811 1.19043 11.1334V15.2" stroke="#FCF8F8" stroke-width="1.5"/>
</svg>
