<svg width="30" height="30" viewBox="0 0 30 30" fill="none" xmlns="http://www.w3.org/2000/svg">
<g clip-path="url(#clip0_54_1292)">
<path d="M17.018 5C17.7814 5.00003 18.5266 5.23307 19.1541 5.66796C19.7815 6.10286 20.2613 6.7189 20.5292 7.43375L23.3967 15.08C24.5899 15.2977 25.6633 15.9417 26.4171 16.8919C27.1709 17.8421 27.5537 19.0339 27.4942 20.2453C27.4347 21.4568 26.937 22.6053 26.0937 23.4771C25.2504 24.3489 24.1191 24.8846 22.9103 24.9843C21.7015 25.0841 20.4976 24.7412 19.5229 24.0194C18.5481 23.2976 17.8688 22.2462 17.6115 21.0609C17.3542 19.8757 17.5364 18.6372 18.1242 17.5763C18.712 16.5153 19.6654 15.7041 20.8067 15.2938L20.228 13.75L11.513 17.0175C12.1776 17.9124 12.5242 19.0037 12.4976 20.1181C12.471 21.2324 12.0728 22.306 11.3663 23.1681C10.6597 24.0303 9.6853 24.6316 8.59786 24.8766C7.51041 25.1216 6.37229 24.9961 5.3643 24.5202C4.35631 24.0443 3.53625 23.2452 3.03441 22.2499C2.53256 21.2545 2.37772 20.12 2.59446 19.0266C2.81121 17.9332 3.38712 16.9435 4.2307 16.2149C5.07428 15.4863 6.13716 15.0604 7.25047 15.005L7.52797 15L6.13922 12.5H5.00047C4.66895 12.5 4.35101 12.3683 4.11659 12.1339C3.88217 11.8995 3.75047 11.5815 3.75047 11.25C3.75047 10.9185 3.88217 10.6005 4.11659 10.3661C4.35101 10.1317 4.66895 10 5.00047 10H10.0005C10.332 10 10.6499 10.1317 10.8844 10.3661C11.1188 10.6005 11.2505 10.9185 11.2505 11.25C11.2505 11.5815 11.1188 11.8995 10.8844 12.1339C10.6499 12.3683 10.332 12.5 10.0005 12.5H9.00047L10.283 14.8088L19.3505 11.4088L18.188 8.31125C18.0987 8.07303 17.9388 7.86773 17.7298 7.72277C17.5207 7.57781 17.2724 7.5001 17.018 7.5H13.7505C13.419 7.5 13.101 7.3683 12.8666 7.13388C12.6322 6.89946 12.5005 6.58152 12.5005 6.25C12.5005 5.91848 12.6322 5.60054 12.8666 5.36612C13.101 5.1317 13.419 5 13.7505 5H17.018ZM22.7092 17.5088L22.4767 17.5C21.8238 17.5058 21.199 17.7669 20.7361 18.2274C20.2731 18.6878 20.0087 19.3112 19.9993 19.9641C19.9899 20.6169 20.2364 21.2476 20.686 21.7212C21.1355 22.1947 21.7525 22.4736 22.405 22.4981C23.0575 22.5227 23.6938 22.291 24.1776 21.8526C24.6615 21.4141 24.9547 20.8038 24.9944 20.152C25.0342 19.5003 24.8173 18.8588 24.3903 18.3649C23.9632 17.8709 23.3599 17.5636 22.7092 17.5088ZM7.50047 17.5C6.83743 17.5 6.20155 17.7634 5.73271 18.2322C5.26386 18.7011 5.00047 19.337 5.00047 20C5.00047 20.663 5.26386 21.2989 5.73271 21.7678C6.20155 22.2366 6.83743 22.5 7.50047 22.5C8.16351 22.5 8.7994 22.2366 9.26824 21.7678C9.73708 21.2989 10.0005 20.663 10.0005 20C10.0005 19.337 9.73708 18.7011 9.26824 18.2322C8.7994 17.7634 8.16351 17.5 7.50047 17.5Z" fill="black"/>
</g>
<defs>
<clipPath id="clip0_54_1292">
<rect width="30" height="30" fill="white"/>
</clipPath>
</defs>
</svg>
