<svg width="30" height="30" viewBox="0 0 30 30" fill="none" xmlns="http://www.w3.org/2000/svg">
<g clip-path="url(#clip0_4_15)">
<path d="M17.0175 5C17.7809 5.00003 18.5262 5.23307 19.1536 5.66796C19.781 6.10286 20.2608 6.7189 20.5288 7.43375L23.3963 15.08C24.5895 15.2977 25.6629 15.9417 26.4167 16.8919C27.1704 17.8421 27.5532 19.0339 27.4937 20.2453C27.4342 21.4568 26.9365 22.6053 26.0932 23.4771C25.25 24.3489 24.1186 24.8846 22.9098 24.9843C21.701 25.0841 20.4972 24.7412 19.5224 24.0194C18.5476 23.2976 17.8684 22.2462 17.6111 21.0609C17.3538 19.8757 17.536 18.6372 18.1238 17.5763C18.7116 16.5153 19.6649 15.7041 20.8063 15.2938L20.2275 13.75L11.5125 17.0175C12.1772 17.9124 12.5237 19.0037 12.4971 20.1181C12.4706 21.2324 12.0724 22.306 11.3658 23.1681C10.6592 24.0303 9.68484 24.6316 8.5974 24.8766C7.50995 25.1216 6.37183 24.9961 5.36384 24.5202C4.35585 24.0443 3.53579 23.2452 3.03395 22.2499C2.53211 21.2545 2.37726 20.12 2.594 19.0266C2.81075 17.9332 3.38666 16.9435 4.23024 16.2149C5.07382 15.4863 6.1367 15.0604 7.25001 15.005L7.52751 15L6.13876 12.5H5.00001C4.66849 12.5 4.35055 12.3683 4.11613 12.1339C3.88171 11.8995 3.75001 11.5815 3.75001 11.25C3.75001 10.9185 3.88171 10.6005 4.11613 10.3661C4.35055 10.1317 4.66849 10 5.00001 10H10C10.3315 10 10.6495 10.1317 10.8839 10.3661C11.1183 10.6005 11.25 10.9185 11.25 11.25C11.25 11.5815 11.1183 11.8995 10.8839 12.1339C10.6495 12.3683 10.3315 12.5 10 12.5H9.00001L10.2825 14.8088L19.35 11.4088L18.1875 8.31125C18.0982 8.07303 17.9384 7.86773 17.7293 7.72277C17.5202 7.57781 17.2719 7.5001 17.0175 7.5H13.75C13.4185 7.5 13.1006 7.3683 12.8661 7.13388C12.6317 6.89946 12.5 6.58152 12.5 6.25C12.5 5.91848 12.6317 5.60054 12.8661 5.36612C13.1006 5.1317 13.4185 5 13.75 5H17.0175ZM22.7088 17.5088L22.4763 17.5C21.8233 17.5058 21.1986 17.7669 20.7356 18.2274C20.2727 18.6878 20.0082 19.3112 19.9988 19.9641C19.9895 20.6169 20.2359 21.2476 20.6855 21.7212C21.1351 22.1947 21.7521 22.4736 22.4046 22.4981C23.0571 22.5227 23.6933 22.291 24.1772 21.8526C24.6611 21.4141 24.9542 20.8038 24.994 20.152C25.0337 19.5003 24.8169 18.8588 24.3898 18.3649C23.9628 17.8709 23.3594 17.5636 22.7088 17.5088ZM7.50001 17.5C6.83697 17.5 6.20109 17.7634 5.73225 18.2322C5.26341 18.7011 5.00001 19.337 5.00001 20C5.00001 20.663 5.26341 21.2989 5.73225 21.7678C6.20109 22.2366 6.83697 22.5 7.50001 22.5C8.16306 22.5 8.79894 22.2366 9.26778 21.7678C9.73662 21.2989 10 20.663 10 20C10 19.337 9.73662 18.7011 9.26778 18.2322C8.79894 17.7634 8.16306 17.5 7.50001 17.5Z" fill="black"/>
</g>
<defs>
<clipPath id="clip0_4_15">
<rect width="30" height="30" fill="white"/>
</clipPath>
</defs>
</svg>
