<svg width="30" height="30" viewBox="0 0 30 30" fill="none" xmlns="http://www.w3.org/2000/svg">
<g clip-path="url(#clip0_54_292)">
<path d="M17.0175 5C17.7809 5.00003 18.5261 5.23307 19.1536 5.66796C19.781 6.10286 20.2608 6.7189 20.5287 7.43375L23.3962 15.08C24.5894 15.2977 25.6628 15.9417 26.4166 16.8919C27.1704 17.8421 27.5532 19.0339 27.4937 20.2453C27.4342 21.4568 26.9365 22.6053 26.0932 23.4771C25.2499 24.3489 24.1186 24.8846 22.9098 24.9843C21.701 25.0841 20.4972 24.7412 19.5224 24.0194C18.5476 23.2976 17.8683 22.2462 17.611 21.0609C17.3537 19.8757 17.5359 18.6372 18.1237 17.5763C18.7115 16.5153 19.6649 15.7041 20.8062 15.2938L20.2275 13.75L11.5125 17.0175C12.1771 17.9124 12.5237 19.0037 12.4971 20.1181C12.4705 21.2324 12.0723 22.306 11.3658 23.1681C10.6592 24.0303 9.68481 24.6316 8.59737 24.8766C7.50992 25.1216 6.3718 24.9961 5.36381 24.5202C4.35582 24.0443 3.53576 23.2452 3.03392 22.2499C2.53208 21.2545 2.37723 20.12 2.59397 19.0266C2.81072 17.9332 3.38663 16.9435 4.23021 16.2149C5.07379 15.4863 6.13667 15.0604 7.24998 15.005L7.52748 15L6.13873 12.5H4.99998C4.66846 12.5 4.35052 12.3683 4.1161 12.1339C3.88168 11.8995 3.74998 11.5815 3.74998 11.25C3.74998 10.9185 3.88168 10.6005 4.1161 10.3661C4.35052 10.1317 4.66846 10 4.99998 10H9.99998C10.3315 10 10.6494 10.1317 10.8839 10.3661C11.1183 10.6005 11.25 10.9185 11.25 11.25C11.25 11.5815 11.1183 11.8995 10.8839 12.1339C10.6494 12.3683 10.3315 12.5 9.99998 12.5H8.99998L10.2825 14.8088L19.35 11.4088L18.1875 8.31125C18.0982 8.07303 17.9383 7.86773 17.7293 7.72277C17.5202 7.57781 17.2719 7.5001 17.0175 7.5H13.75C13.4185 7.5 13.1005 7.3683 12.8661 7.13388C12.6317 6.89946 12.5 6.58152 12.5 6.25C12.5 5.91848 12.6317 5.60054 12.8661 5.36612C13.1005 5.1317 13.4185 5 13.75 5H17.0175ZM22.7087 17.5088L22.4762 17.5C21.8233 17.5058 21.1985 17.7669 20.7356 18.2274C20.2726 18.6878 20.0082 19.3112 19.9988 19.9641C19.9895 20.6169 20.2359 21.2476 20.6855 21.7212C21.135 22.1947 21.752 22.4736 22.4045 22.4981C23.057 22.5227 23.6933 22.291 24.1772 21.8526C24.661 21.4141 24.9542 20.8038 24.9939 20.152C25.0337 19.5003 24.8168 18.8588 24.3898 18.3649C23.9627 17.8709 23.3594 17.5636 22.7087 17.5088ZM7.49998 17.5C6.83694 17.5 6.20106 17.7634 5.73222 18.2322C5.26338 18.7011 4.99998 19.337 4.99998 20C4.99998 20.663 5.26338 21.2989 5.73222 21.7678C6.20106 22.2366 6.83694 22.5 7.49998 22.5C8.16302 22.5 8.79891 22.2366 9.26775 21.7678C9.73659 21.2989 9.99998 20.663 9.99998 20C9.99998 19.337 9.73659 18.7011 9.26775 18.2322C8.79891 17.7634 8.16302 17.5 7.49998 17.5Z" fill="black"/>
</g>
<defs>
<clipPath id="clip0_54_292">
<rect width="30" height="30" fill="white"/>
</clipPath>
</defs>
</svg>
