<svg width="30" height="31" viewBox="0 0 30 31" fill="none" xmlns="http://www.w3.org/2000/svg">
<path d="M5.24974 7.15183C5.24974 5.97273 5.64481 4.84193 6.34803 4.00818C7.05126 3.17444 8.00504 2.70604 8.99955 2.70604C9.99406 2.70604 10.9478 3.17444 11.6511 4.00818C12.3543 4.84193 12.7494 5.97273 12.7494 7.15183C12.7494 8.33092 12.3543 9.46172 11.6511 10.2955C10.9478 11.1292 9.99406 11.5976 8.99955 11.5976C8.00504 11.5976 7.05126 11.1292 6.34803 10.2955C5.64481 9.46172 5.24974 8.33092 5.24974 7.15183ZM8.99955 0.0385742C7.40833 0.0385742 5.88228 0.788004 4.75712 2.122C3.63196 3.45599 2.99985 5.26528 2.99985 7.15183C2.99985 9.03838 3.63196 10.8477 4.75712 12.1817C5.88228 13.5156 7.40833 14.2651 8.99955 14.2651C10.5908 14.2651 12.1168 13.5156 13.242 12.1817C14.3671 10.8477 14.9993 9.03838 14.9993 7.15183C14.9993 5.26528 14.3671 3.45599 13.242 2.122C12.1168 0.788004 10.5908 0.0385742 8.99955 0.0385742ZM20.249 8.93014C20.249 8.22268 20.486 7.5442 20.908 7.04395C21.3299 6.54371 21.9022 6.26267 22.4989 6.26267C23.0956 6.26267 23.6678 6.54371 24.0898 7.04395C24.5117 7.5442 24.7488 8.22268 24.7488 8.93014C24.7488 9.6376 24.5117 10.3161 24.0898 10.8163C23.6678 11.3166 23.0956 11.5976 22.4989 11.5976C21.9022 11.5976 21.3299 11.3166 20.908 10.8163C20.486 10.3161 20.249 9.6376 20.249 8.93014ZM22.4989 3.5952C21.3055 3.5952 20.1609 4.15727 19.3171 5.15777C18.4732 6.15826 17.9991 7.51523 17.9991 8.93014C17.9991 10.3451 18.4732 11.702 19.3171 12.7025C20.1609 13.703 21.3055 14.2651 22.4989 14.2651C23.6923 14.2651 24.8368 13.703 25.6807 12.7025C26.5246 11.702 26.9986 10.3451 26.9986 8.93014C26.9986 7.51523 26.5246 6.15826 25.6807 5.15777C24.8368 4.15727 23.6923 3.5952 22.4989 3.5952ZM18.3711 26.7808C19.4255 27.2877 20.777 27.6024 22.5004 27.6024C25.9232 27.6024 27.8791 26.3629 28.9456 24.8318C29.463 24.0885 29.7255 23.338 29.8605 22.7636C29.9374 22.4308 29.9842 22.0892 30 21.7447V21.6967C30 21.1878 29.9155 20.6839 29.7512 20.2138C29.587 19.7436 29.3462 19.3165 29.0427 18.9567C28.7392 18.5968 28.3789 18.3114 27.9824 18.1167C27.5859 17.9219 27.1609 17.8217 26.7317 17.8217H18.2691C18.2271 17.8217 18.1866 17.8217 18.1461 17.8253C18.7371 18.5544 19.166 19.4702 19.37 20.4892H26.7317C27.2896 20.4892 27.7426 21.0209 27.7501 21.6789C27.7394 21.8064 27.7193 21.9325 27.6901 22.0559C27.5975 22.4513 27.4337 22.8184 27.2101 23.1318C26.6852 23.8893 25.4522 24.935 22.5004 24.935C21.0304 24.935 19.9865 24.6753 19.2455 24.3214C19.0835 25.0328 18.8166 25.8917 18.3711 26.7808ZM3.37483 17.8217C2.47977 17.8217 1.62137 18.2433 0.988465 18.9936C0.355561 19.744 0 20.7617 0 21.8229V22.3173C0.00176281 22.4409 0.00877122 22.5644 0.0209989 22.6872C0.144862 24.0104 0.546026 25.2759 1.18794 26.3683C2.41488 28.4453 4.75776 30.2699 8.99955 30.2699C13.2413 30.2699 15.5842 28.4471 16.8112 26.3665C17.4532 25.2742 17.8544 24.0087 17.9781 22.6854C17.9887 22.563 17.9957 22.4402 17.9991 22.3173V21.8229C17.9991 20.7617 17.6435 19.744 17.0106 18.9936C16.3777 18.2433 15.5193 17.8217 14.6243 17.8217H3.37483ZM2.24989 22.2799V21.8229C2.24989 21.4692 2.36841 21.1299 2.57938 20.8798C2.79034 20.6297 3.07648 20.4892 3.37483 20.4892H14.6243C14.9226 20.4892 15.2088 20.6297 15.4197 20.8798C15.6307 21.1299 15.7492 21.4692 15.7492 21.8229V22.2799L15.7387 22.4222C15.6532 23.2901 15.3884 24.1196 14.9678 24.8372C14.2283 26.0909 12.6324 27.6024 8.99955 27.6024C5.36673 27.6024 3.77081 26.0909 3.02985 24.8372C2.60971 24.1195 2.34541 23.29 2.26039 22.4222C2.25584 22.3749 2.25233 22.3275 2.24989 22.2799Z" fill="black"/>
</svg>
