<svg width="32" height="33" viewBox="0 0 32 33" fill="none" xmlns="http://www.w3.org/2000/svg">
<path d="M31 29.3119V12.9966C31 12.6986 30.9322 12.4047 30.802 12.1382C30.6719 11.8716 30.4829 11.6398 30.25 11.461L17.125 1.38389C16.8004 1.1347 16.4057 1 16 1C15.5943 1 15.1996 1.1347 14.875 1.38389L1.75 11.461C1.51713 11.6398 1.32813 11.8716 1.19795 12.1382C1.06777 12.4047 1 12.6986 1 12.9966V29.3119C1 29.8209 1.19754 30.3092 1.54918 30.6691C1.90081 31.0291 2.37772 31.2313 2.875 31.2313H10.375C10.8723 31.2313 11.3492 31.0291 11.7008 30.6691C12.0525 30.3092 12.25 29.8209 12.25 29.3119V23.5535C12.25 23.0445 12.4475 22.5562 12.7992 22.1963C13.1508 21.8363 13.6277 21.6341 14.125 21.6341H17.875C18.3723 21.6341 18.8492 21.8363 19.2008 22.1963C19.5525 22.5562 19.75 23.0445 19.75 23.5535V29.3119C19.75 29.8209 19.9475 30.3092 20.2992 30.6691C20.6508 31.0291 21.1277 31.2313 21.625 31.2313H29.125C29.6223 31.2313 30.0992 31.0291 30.4508 30.6691C30.8025 30.3092 31 29.8209 31 29.3119Z" stroke="black" stroke-width="1.66667" stroke-linecap="round" stroke-linejoin="round"/>
</svg>
