<svg width="30" height="30" viewBox="0 0 30 30" fill="none" xmlns="http://www.w3.org/2000/svg">
<g clip-path="url(#clip0_4_13)">
<path d="M0 4.61536V5.7692H9.23077V6.92305H2.30769V8.0769H0V9.23074H8.07692V10.3846H2.30769V11.5384H0V12.6923H6.92308V13.8461H2.30769V15H0V16.1538H5.76923V17.3077H2.30769V21.9231C2.30769 22.6154 2.76923 23.0769 3.46154 23.0769H4.61538C4.84615 21.1154 6.57692 19.5069 8.65385 19.5069C10.7308 19.5069 12.4615 21 12.6923 23.0769H16.1538C16.8462 23.0769 17.3077 22.6154 17.3077 21.9231V5.7692C17.3077 5.07689 16.8462 4.61536 16.1538 4.61536H0ZM19.6154 9.23074C18.9231 9.23074 18.4615 9.69228 18.4615 10.3846V21.9231C18.4615 22.5 18.9231 23.0769 19.6154 23.0769C19.8462 21.1154 21.5769 19.5069 23.6538 19.5069C25.7308 19.5069 27.4615 21 27.6923 23.0769H28.8462C29.5385 23.0769 30 22.6154 30 21.9231V16.1538C30 15.1154 29.0619 13.8461 29.0619 13.8461L26.5385 10.3846C25.9615 9.69228 25.6154 9.23074 24.8077 9.23074H19.6154ZM21.9231 11.5384H24.6992C24.93 11.5384 25.1688 11.7554 25.1688 11.7554L27.5838 15.1084C27.8146 15.4546 28.0535 15.8146 28.0535 16.0454H21.9231V11.5384ZM8.65385 20.9861C7.94697 20.9886 7.26973 21.2704 6.76978 21.7701C6.26983 22.2698 5.98774 22.9469 5.985 23.6538C5.98743 24.3609 6.2694 25.0383 6.76937 25.5383C7.26935 26.0383 7.94677 26.3202 8.65385 26.3227C9.36092 26.3202 10.0383 26.0383 10.5383 25.5383C11.0383 25.0383 11.3203 24.3609 11.3227 23.6538C11.3203 22.9467 11.0383 22.2693 10.5383 21.7694C10.0383 21.2694 9.36092 20.9886 8.65385 20.9861ZM23.6538 20.9861C22.947 20.9886 22.2697 21.2704 21.7698 21.7701C21.2698 22.2698 20.9877 22.9469 20.985 23.6538C20.9874 24.3609 21.2694 25.0383 21.7694 25.5383C22.2694 26.0383 22.9468 26.3202 23.6538 26.3227C24.3609 26.3202 25.0383 26.0383 25.5383 25.5383C26.0383 25.0383 26.3203 24.3609 26.3227 23.6538C26.3203 22.9467 26.0383 22.2693 25.5383 21.7694C25.0383 21.2694 24.3609 20.9886 23.6538 20.9861Z" fill="black"/>
</g>
<defs>
<clipPath id="clip0_4_13">
<rect width="30" height="30" fill="white"/>
</clipPath>
</defs>
</svg>
